<svg viewBox="0 0 768 768" xmlns="http://www.w3.org/2000/svg">
  <!-- Sun -->
  <circle cx="384" cy="200" r="80" fill="#FFA500"/>
  <line x1="384" y1="80" x2="384" y2="40" stroke="#FFD700" stroke-width="20" stroke-linecap="round"/>
  <line x1="384" y1="360" x2="384" y2="320" stroke="#FFD700" stroke-width="20" stroke-linecap="round"/>
  <line x1="264" y1="200" x2="224" y2="160" stroke="#FFD700" stroke-width="20" stroke-linecap="round"/>
  <line x1="504" y1="440" x2="544" y2="480" stroke="#FFD700" stroke-width="20" stroke-linecap="round"/>
  <line x1="504" y1="160" x2="544" y2="120" stroke="#FFD700" stroke-width="20" stroke-linecap="round"/>
  <line x1="264" y1="440" x2="224" y2="480" stroke="#FFD700" stroke-width="20" stroke-linecap="round"/>
  <line x1="224" y1="200" x2="160" y2="200" stroke="#FFD700" stroke-width="20" stroke-linecap="round"/>
  <line x1="544" y1="200" x2="608" y2="200" stroke="#FFD700" stroke-width="20" stroke-linecap="round"/>

  <!-- Green hills -->
  <ellipse cx="200" cy="380" rx="120" ry="80" fill="#2D5016"/>
  <ellipse cx="580" cy="380" rx="140" ry="90" fill="#2D5016"/>

  <!-- Fields -->
  <path d="M 150 400 Q 200 350 250 400 T 350 400" fill="none" stroke="#7CB342" stroke-width="12"/>
  <path d="M 170 430 Q 220 380 270 430 T 370 430" fill="none" stroke="#7CB342" stroke-width="12"/>
  <path d="M 450 400 Q 500 350 550 400 T 650 400" fill="none" stroke="#F4A460" stroke-width="12"/>
  <path d="M 470 430 Q 520 380 570 430 T 670 430" fill="none" stroke="#F4A460" stroke-width="12"/>

  <!-- Magnifying glass circle -->
  <circle cx="380" cy="320" r="90" fill="none" stroke="#0D47A1" stroke-width="8"/>
  <!-- Magnifying glass handle -->
  <line x1="440" y1="380" x2="500" y2="440" stroke="#0D47A1" stroke-width="8" stroke-linecap="round"/>

  <!-- Plant inside magnifying glass -->
  <circle cx="380" cy="330" r="15" fill="#8B4513"/>
  <line x1="380" y1="315" x2="380" y2="280" stroke="#2D5016" stroke-width="6"/>
  <path d="M 365 290 Q 360 280 355 285" fill="none" stroke="#4CAF50" stroke-width="5" stroke-linecap="round"/>
  <path d="M 395 290 Q 400 280 405 285" fill="none" stroke="#4CAF50" stroke-width="5" stroke-linecap="round"/>
  <path d="M 375 295 Q 370 285 365 290" fill="none" stroke="#66BB6A" stroke-width="5" stroke-linecap="round"/>
  <path d="M 385 295 Q 390 285 395 290" fill="none" stroke="#66BB6A" stroke-width="5" stroke-linecap="round"/>

  <!-- Text -->
  <text x="384" y="600" font-family="Arial, sans-serif" font-size="72" font-weight="bold" text-anchor="middle" fill="#0D47A1">CROP ADVISOR</text>
  <text x="384" y="680" font-family="Arial, sans-serif" font-size="48" font-weight="600" text-anchor="middle" fill="#FFA500">SYSTEM</text>
</svg>